<svg id="Layer_1" data-name="Layer 1" xmlns="http://www.w3.org/2000/svg" viewBox="0 0 502.79 62.01"><defs><style>.cls-1{fill:#fff;}.cls-2{fill:#c2c3c4;}</style></defs><path class="cls-1" d="M136,33.24H93.58l-1.52,1.22V72.21h11.67V58l1.07-1.06H136c7.89,0,11.52-2.13,11.52-7.59V40.67c0-5.31-3.63-7.43-11.52-7.43m0,13.95c0,2.58-1.67,3-5.46,3H105l-1.22-1.06v-8l1.07-1.06h25.77c3.64,0,5.46.45,5.46,3v4.09Z" transform="translate(-18.82 -10.35)"/><polyline class="cls-1" points="150.26 30.02 160.42 44.88 159.81 46.25 137.37 46.25 131.61 53.37 164.97 53.37 167.39 54.74 172.55 61.86 186.04 61.86 156.48 22.44"/><polyline class="cls-1" points="284.14 54.28 284.14 43.67 285.36 42.61 307.95 42.61 307.95 35.94 272.17 35.94 272.17 61.86 324.93 61.86 324.93 55.19 285.51 55.19"/><rect class="cls-1" x="272.17" y="22.9" width="53.22" height="7.28"/><path class="cls-1" d="M231.71,40.22h42.91c-.61-5.46-4.1-7-12.59-7H231.25c-9.7,0-12.74,1.82-12.74,9.25V63.11c0,7.28,3,9.25,12.74,9.25H262c8.64,0,12-1.67,12.28-7.28h-42.6l-1.22-1.21V41.13" transform="translate(-18.82 -10.35)"/><path class="cls-1" d="M63.25,48.4H32.17l-.91-1.06V40.67l.91-.76h42l.6-1.36c-1.36-3.64-5.15-5.46-12-5.46H33.53c-9.7,0-12.73,1.82-12.73,9.25v4.4c0,7.27,3,9.25,12.73,9.25H64.62l.91.91v7l-.76,1.06H19.89s-1.07.61-1.07.76c.76,5.16,4.25,6.52,12.59,6.52H63.25c9.7,0,12.89-1.82,12.89-9.25V57.65c0-7.27-3.19-9.25-12.89-9.25" transform="translate(-18.82 -10.35)"/><path class="cls-1" d="M377.72,33.09H360.13l-.91,1.82,19.41,14.25c3.64-2.12,7.73-4.24,12-6.37" transform="translate(-18.82 -10.35)"/><path class="cls-1" d="M393.49,59.78l17.13,12.43h17.59l.76-1.67L403.5,51.89c-3.34,2.58-6.83,5.16-10,7.89" transform="translate(-18.82 -10.35)"/><path class="cls-2" d="M375.14,72.21H359.22l-1.36-2.12c10.76-10.47,59-55,163.75-59.74,0,0-87.79,3-146.47,61.86" transform="translate(-18.82 -10.35)"/></svg>